HIERARCHY
ROOT Hips
{
  OFFSET 34.8587 103.255 -143.23
  CHANNELS 6 Xposition Yposition Zposition Zrotation Xrotation Yrotation
  JOINT RightUpLeg
  {
    OFFSET -8.9458 -8.66707 0.101652
    CHANNELS 3 Zrotation Xrotation Yrotation
    JOINT RightLeg
    {
      OFFSET 0 -44.4227 1.3727
      CHANNELS 3 Zrotation Xrotation Yrotation
      JOINT RightFoot
      {
        OFFSET 0.253549 -42.0924 -1.46059
        CHANNELS 3 Zrotation Xrotation Yrotation
        JOINT RightToes
        {
          OFFSET 0.04 -4.41509 8.4991
          CHANNELS 3 Zrotation Xrotation Yrotation
          End Site
          {
            OFFSET -0.08 -0.137448 9.77979
          }
        }
      }
    }
  }
  JOINT Spine
  {
    OFFSET 0 11.8905 0
    CHANNELS 3 Zrotation Xrotation Yrotation
    JOINT Spine1
    {
      OFFSET 0 25.6574 0.127663
      CHANNELS 3 Zrotation Xrotation Yrotation
      JOINT HEad
      {
        OFFSET 0 8.73416 0.011341
        CHANNELS 3 Zrotation Xrotation Yrotation
        End Site
        {
          OFFSET -0.29 12.7742 2.51395
        }
      }
      JOINT LeftShoulder1
      {
        OFFSET 8.99 -0.362252 -0.22
        CHANNELS 3 Zrotation Xrotation Yrotation
        JOINT LeftArm
        {
          OFFSET 10.2827 -0.00338 0.322123
          CHANNELS 3 Zrotation Xrotation Yrotation
          JOINT LeftForeArm
          {
            OFFSET 32.7669 0.099144 -1.42434
            CHANNELS 3 Zrotation Xrotation Yrotation
            JOINT LeftHand
            {
              OFFSET 27.5643 0.085362 1.02216
              CHANNELS 3 Zrotation Xrotation Yrotation
              End Site
              {
                OFFSET 16.7443 -0.6 1.50291
              }
            }
          }
        }
      }
      JOINT RightShoulder
      {
        OFFSET -8.99 -0.362252 -0.22
        CHANNELS 3 Zrotation Xrotation Yrotation
        JOINT RightArm
        {
          OFFSET -10.2827 -0.00338 0.322123
          CHANNELS 3 Zrotation Xrotation Yrotation
          JOINT RightForeArm
          {
            OFFSET -32.8971 0.099144 -1.42434
            CHANNELS 3 Zrotation Xrotation Yrotation
            JOINT RightHand
            {
              OFFSET -27.4921 0.085362 1.02216
              CHANNELS 3 Zrotation Xrotation Yrotation
              End Site
              {
                OFFSET -16.6312 -0.6 1.50291
              }
            }
          }
        }
      }
    }
  }
  JOINT LeftUpLeg
  {
    OFFSET 8.9458 -8.66707 0.101652
    CHANNELS 3 Zrotation Xrotation Yrotation
    JOINT LeftLeg
    {
      OFFSET 0 -44.4227 1.3727
      CHANNELS 3 Zrotation Xrotation Yrotation
      JOINT LeftFoot
      {
        OFFSET -0.253549 -42.0924 -1.46059
        CHANNELS 3 Zrotation Xrotation Yrotation
        JOINT LeftToes
        {
          OFFSET -0.04 -4.41509 8.4991
          CHANNELS 3 Zrotation Xrotation Yrotation
          End Site
          {
            OFFSET 0.08 -0.047448 9.77979
          }
        }
      }
    }
  }
}
MOTION
Frames:	14
Frame Time:	0.0166667
34.9177 102.661 -148.199 2.57256 -0.0254885 -9.62478 0.404616 9.14083 0.23117 -1.81932 25.7577 -9.87637 6.60783 -4.21009 -0.115459 0.0462048 0.000533964 0.662642 -0.67855 3.81045 0.888528 2.80126 -0.265854 0.203912 -4.65671 -0.106495 10.2946 -2.48481e-015 -1.19271e-015 1.59028e-015 -80.6547 -44.133 1.97467 -21.8392 13.5552 -9.00845 0.368473 9.90896 -0.00117926 -10.1689 -0.0688309 11.8439 91.9325 -39.0906 6.83615 14.3436 16.3734 31.5789 -0.369625 9.91382 0.00119886 -10.3173 -17.4117 0.497338 9.36918 16.3064 -5.18937 -0.491357 -7.34979 0.0200125 3.90634e-011 -2.46318e-011 8.76784e-011 
34.9257 102.895 -146.501 2.53919 -0.139937 -10.3231 -0.493435 6.58709 -0.69765 -1.3933 30.9103 -8.16037 7.36169 -1.25537 -0.303618 0.0462048 0.000533964 0.662642 -0.72733 3.88511 0.932091 2.97495 -0.146627 0.203558 -4.91976 0.383578 10.6026 -1.98785e-016 0 3.18055e-015 -81.9444 -44.7764 0.958652 -21.4019 13.6439 -9.41908 0.368473 9.90896 -0.00117926 -11.3501 -0.231779 12.0039 92.8254 -39.4853 6.08198 14.1656 16.233 30.7851 -0.369625 9.91382 0.00119886 -10.0694 -16.2772 1.05789 9.22336 16.4986 -5.23357 -1.11049 -8.64452 -0.0206103 -0.186588 1.11836 -1.11787 
34.916 103.108 -144.83 2.53383 -0.198286 -10.971 -1.37742 3.97812 -1.62708 -1.32159 35.9372 -6.58628 7.88693 1.42512 -0.469511 0.0462048 0.000533964 0.662642 -0.806199 3.94014 0.970781 3.08881 -0.10987 0.206085 -5.12438 0.8578 10.8766 6.95746e-016 -1.19271e-015 1.59028e-015 -83.0754 -45.1352 0.0294792 -21.1121 13.7427 -9.90028 0.368473 9.90896 -0.00117926 -12.2564 -0.357553 12.1642 93.353 -39.9065 5.21191 14.0372 16.1076 30.0302 -0.369625 9.91382 0.00119886 -9.88489 -15.1942 1.54784 9.05337 16.6413 -5.27195 -1.56798 -9.84467 -0.0531178 -0.277053 1.96423 -1.84878 
34.8587 103.255 -143.23 2.65394 -0.0980696 -11.5359 -2.13481 1.15378 -2.64111 -1.5097 40.7792 -5.50094 7.66808 3.60144 -0.58721 0.0462048 0.000533964 0.662642 -0.993988 3.93459 0.996602 3.00911 -0.323842 0.217525 -5.16132 1.30742 11.1005 -2.28602e-015 0 -0 -83.6515 -44.8005 -0.543688 -21.229 13.8602 -10.5381 0.368473 9.90896 -0.00117926 -12.4628 -0.390292 12.4436 92.9378 -40.4454 3.9981 14.0451 16.0397 29.4062 -0.369625 9.91382 0.00119886 -9.86054 -14.2714 1.76569 8.77055 16.6745 -5.20658 -1.52603 -10.7951 -0.0601797 -0.182926 2.02135 -1.3643 
34.7731 103.388 -141.676 2.74156 0.0734687 -11.9146 -2.73849 -1.61449 -3.54664 -1.72275 45.0364 -5.0567 7.228 4.8669 -0.645295 0.0462048 0.000533964 0.662642 -1.17383 3.9128 1.01399 2.89796 -0.613645 0.231317 -5.09686 1.70049 11.1827 9.93923e-017 -7.95139e-016 -1.59028e-015 -83.9899 -43.911 -1.05494 -21.5655 14.0112 -11.3567 0.368473 9.90896 -0.00117926 -12.1504 -0.350099 12.4862 91.8663 -40.933 2.66971 14.1585 15.997 28.7857 -0.369625 9.91382 0.00119886 -9.8358 -13.3963 2.06771 8.54231 16.5807 -5.30715 -1.34018 -11.583 -0.0596155 -0.0516709 1.75526 -0.594695 
34.6679 103.555 -140.151 2.63902 0.291685 -11.9713 -3.00802 -4.11642 -4.03517 -1.52557 48.243 -5.9662 6.97707 4.38503 -0.601915 0.0462048 0.000533964 0.662642 -1.22456 3.90996 1.02179 2.89188 -0.892152 0.244083 -4.97528 2.01568 11.0159 -9.93923e-017 3.97569e-016 1.59028e-015 -84.2289 -42.3894 -1.6804 -22.0683 14.2223 -12.4684 0.368473 9.90896 -0.00117926 -11.2805 -0.219367 11.8985 90.1718 -41.206 1.41088 14.391 15.9577 28.0456 -0.369625 9.91382 0.00119886 -9.68365 -12.4857 2.89921 8.54359 16.2369 -5.93962 -1.27238 -12.181 -0.063221 -0.00697098 1.3901 -0.284546 
34.5452 103.712 -138.666 2.42376 0.475086 -11.772 -3.09229 -6.34207 -4.52231 -1.03196 50.5104 -7.25447 6.7503 3.21522 -0.519874 0.0462048 0.000533964 0.662642 -1.23818 3.91267 1.02877 2.93342 -1.06431 0.252283 -4.74492 2.21396 10.6302 -2.98177e-016 0 1.59028e-015 -84.4847 -40.4546 -2.4938 -22.5828 14.4582 -13.6983 0.368473 9.90896 -0.00117926 -10.0764 -0.0529113 10.9123 88.1336 -41.3642 0.192278 14.6872 15.9206 27.2668 -0.369625 9.91382 0.00119886 -9.49425 -11.5559 3.76937 8.64431 15.896 -6.71238 -1.26992 -12.7782 -0.072441 0.00717251 1.13464 -0.163744 
34.4141 103.833 -137.229 2.09811 0.495922 -11.2842 -3.15708 -8.15068 -5.39279 -0.643515 51.7787 -7.7703 6.54763 2.36606 -0.460232 0.0462048 0.000533964 0.662642 -1.24731 3.92148 1.03741 2.99984 -0.944181 0.248031 -4.3061 2.15389 9.99106 1.09332e-015 3.97569e-016 3.18055e-015 -84.9282 -38.2295 -3.67911 -22.9128 14.706 -14.9396 0.368473 9.90896 -0.00117926 -8.66928 0.106161 9.55065 85.9722 -41.4116 -0.92264 15.0096 15.8709 26.429 -0.369625 9.91382 0.00119886 -9.272 -10.5565 4.34573 8.80597 15.7708 -7.38372 -1.41921 -13.6042 -0.0983076 0.00136959 1.46531 -0.253896 
34.2617 103.907 -135.833 1.73806 0.46647 -10.6674 -3.18377 -9.70723 -6.43169 -0.43682 52.2244 -7.77874 6.28544 1.15355 -0.386479 0.0462048 0.000533964 0.662642 -1.30885 3.92965 1.06538 3.12326 -0.717297 0.240965 -3.86708 2.11698 9.18654 -5.96354e-016 3.97569e-016 -0 -85.4486 -35.9068 -5.03964 -23.1483 14.9383 -16.096 0.368473 9.90896 -0.00117926 -7.30354 0.238149 8.04587 83.874 -41.4789 -2.04295 15.3175 15.83 25.7127 -0.369625 9.91382 0.00119886 -9.04959 -9.61588 4.62047 8.98826 15.8645 -7.88519 -1.56649 -14.5102 -0.124302 -0.0178406 1.80278 -0.424283 
34.077 103.902 -134.477 1.41003 0.46613 -10.0582 -3.18503 -11.1392 -7.69822 -0.626758 52.0058 -7.00678 5.87089 -0.939334 -0.269211 0.0462048 0.000533964 0.662642 -1.52035 3.93167 1.14556 3.36244 -0.50328 0.239091 -3.63005 2.43323 8.23917 -9.93923e-016 7.95139e-016 4.77083e-015 -86.1084 -33.7116 -6.53046 -23.3108 15.1141 -16.9622 0.368473 9.90896 -0.00117926 -6.30601 0.294877 6.57881 82.1001 -41.6797 -3.26684 15.5689 15.8242 25.3187 -0.369625 9.91382 0.00119886 -8.84854 -8.8767 4.28797 9.11673 16.3262 -7.93529 -1.57178 -15.4389 -0.136815 -0.0500832 1.65287 -0.568563 
33.864 103.846 -133.149 1.13994 0.466965 -9.49355 -3.19329 -12.4209 -8.75493 -0.818121 51.0727 -6.23348 5.34898 -3.40491 -0.148977 0.0462048 0.000533964 0.662642 -1.79246 3.92427 1.23476 3.61458 -0.313918 0.239416 -3.46189 2.82451 7.3101 -5.96354e-016 0 -0 -86.7608 -31.6852 -8.00795 -23.432 15.2788 -17.7528 0.368473 9.90896 -0.00117926 -5.58747 0.314435 5.32686 80.5791 -42.0511 -4.60878 15.7391 15.8379 25.1639 -0.369625 9.91382 0.00119886 -8.67027 -8.2378 3.91078 9.24178 16.9358 -7.92986 -1.47618 -16.3459 -0.137213 -0.0797698 1.23672 -0.634782 
33.6242 103.757 -131.837 0.988248 0.45693 -9.06732 -3.19785 -13.572 -9.12317 -0.673232 49.4171 -6.19984 4.64968 -6.02266 -0.0581092 0.0462048 0.000533964 0.662642 -2.06167 3.89897 1.2984 3.78893 -0.194854 0.24064 -3.32616 3.09239 6.57568 9.93923e-017 0 -0 -87.3512 -29.9673 -9.35358 -23.5331 15.4554 -18.6114 0.368473 9.90896 -0.00117926 -5.23334 0.315716 4.59259 79.3901 -42.7332 -6.16388 15.7533 15.8621 25.2827 -0.369625 9.91382 0.00119886 -8.56901 -7.64289 4.07864 9.41544 17.4989 -8.28888 -1.25558 -17.1434 -0.12041 -0.0674953 0.593017 -0.434299 
33.3539 103.632 -130.531 0.918021 0.467805 -8.74455 -3.17879 -14.6311 -8.94957 -0.420184 47.1231 -6.62137 3.99471 -8.44791 0.00992088 0.0462048 0.000533964 0.662642 -2.34791 3.86591 1.34353 3.90817 -0.164139 0.245684 -3.19535 3.32049 6.01343 -7.95139e-016 0 -1.59028e-015 -87.837 -28.5058 -10.5271 -23.6454 15.6538 -19.5506 0.368473 9.90896 -0.00117926 -5.03631 0.310592 4.18152 78.2753 -43.5156 -7.83591 15.7133 15.8947 25.5237 -0.369625 9.91382 0.00119886 -8.51303 -7.11022 4.38871 9.58848 18.0787 -8.66455 -0.964843 -17.9037 -0.0917882 -0.0631989 -0.225179 -0.271431 
33.0467 103.474 -129.217 0.915622 0.544516 -8.52964 -3.13004 -15.6817 -8.17143 -0.178733 44.261 -7.59716 3.66375 -10.1992 0.0480379 0.0462048 0.000533964 0.662642 -2.65458 3.837 1.36468 3.95986 -0.283615 0.258617 -3.02459 3.56279 5.67181 -3.97569e-016 7.95139e-016 -1.59028e-015 -88.1467 -27.3157 -11.4381 -23.8196 15.8885 -20.6266 0.368473 9.90896 -0.00117926 -4.78169 0.321107 4.01965 76.9506 -44.2123 -9.60027 15.7336 15.9455 25.7903 -0.369625 9.91382 0.00119886 -8.463 -6.66579 4.6125 9.69616 18.6899 -8.78823 -0.645697 -18.6853 -0.0540657 -0.149272 -1.15083 -0.53306 
